<svg width="13" height="23" viewBox="0 0 13 23" fill="none" xmlns="http://www.w3.org/2000/svg">
<path fill-rule="evenodd" clip-rule="evenodd" d="M9.01468 8.00278C11.2847 5.75525 12.6224 2.88946 12.997 0.32485L9.96009 0C9.65459 2.09143 8.54388 4.46369 6.69912 6.29019C4.88482 8.08655 3.13046 9.29371 0 9.30433C0.750128 9.30437 0.722828 9.27972 0 9.30433V10.6384V11.948C3.03043 11.9624 4.77645 13.3541 6.62716 15.4919C8.50086 17.6563 9.64172 20.4829 9.95687 23L13 22.721C12.635 19.806 11.3274 16.5216 9.0864 13.9329C8.46554 13.2157 7.76483 12.0964 6.98616 11.5L6.17049 10.6384L7.45998 9.32899C8.02059 8.91893 8.5391 8.47365 9.01468 8.00278Z" fill="#F4F2ED"/>
</svg>
