<svg width="13" height="23" viewBox="0 0 13 23" fill="none" xmlns="http://www.w3.org/2000/svg">
<path fill-rule="evenodd" clip-rule="evenodd" d="M3.98532 8.00278C1.71533 5.75525 0.377608 2.88946 0.00298788 0.32485L3.03991 0C3.34541 2.09143 4.45612 4.46369 6.30088 6.29019C8.11518 8.08655 9.86954 9.29371 13 9.30433C12.2499 9.30437 12.2772 9.27972 13 9.30433V10.6384V11.948C9.96957 11.9624 8.22355 13.3541 6.37284 15.4919C4.49914 17.6563 3.35828 20.4829 3.04313 23L0 22.721C0.364971 19.806 1.67256 16.5216 3.9136 13.9329C4.53446 13.2157 5.23517 12.0964 6.01384 11.5L6.82951 10.6384L5.54002 9.32899C4.97941 8.91893 4.4609 8.47365 3.98532 8.00278Z" fill="#F4F2ED"/>
</svg>
