<svg width="35" height="27" viewBox="0 0 35 27" fill="none" xmlns="http://www.w3.org/2000/svg">
<path d="M0.00565154 15.6718C0.186501 11.7186 1.6333 8.37711 4.34604 5.64749C7.05878 2.91787 10.1332 1.03537 13.5694 0C12.213 0.658871 10.9923 1.64718 9.90715 2.96493C8.09866 4.84743 7.05878 6.54168 6.7875 8.04768C6.60665 9.36543 6.69708 10.4479 7.05878 11.295C7.42047 12.048 7.78217 12.6127 8.14387 12.9892C8.77684 13.7422 9.86194 14.4952 11.3992 15.2482C13.7502 16.3777 14.9257 18.2602 14.9257 20.8957C14.9257 22.6841 14.3832 24.096 13.2981 25.1313C12.1226 26.5432 10.4497 27.155 8.27951 26.9668C6.38059 26.9668 4.61731 26.1197 2.98967 24.4254C0.909898 22.2605 -0.0847731 19.3427 0.00565154 15.6718ZM19.673 15.813C19.7634 13.9305 20.1704 12.1892 20.8938 10.589C21.7076 8.98892 22.7022 7.52999 23.8778 6.21224C25.0533 4.80037 26.4097 3.62381 27.9469 2.68256C29.4841 1.64718 31.0665 0.847119 32.6942 0.282372C32.0612 0.658872 31.383 1.1295 30.6596 1.69424C29.9362 2.25899 29.258 2.91787 28.6251 3.67087C28.0825 4.32974 27.5852 5.08274 27.1331 5.92987C26.7714 6.68286 26.5453 7.43586 26.4549 8.18886C26.274 9.50661 26.3644 10.542 26.7261 11.295C27.0878 12.048 27.4495 12.6127 27.8112 12.9892C28.6251 13.8364 29.7102 14.5894 31.0665 15.2482C32.2421 15.813 33.1915 16.566 33.9149 17.5072C34.6383 18.3543 35 19.4839 35 20.8957C35 22.59 34.4575 24.0018 33.3724 25.1313C32.1064 26.4491 30.4336 27.0609 28.3538 26.9668C26.1836 26.9668 24.2395 26.0726 22.5214 24.2842C20.5321 22.2135 19.5826 19.3897 19.673 15.813Z" fill="#FBFAF7"/>
</svg>
