<svg width="65" height="65" viewBox="0 0 65 65" fill="none" xmlns="http://www.w3.org/2000/svg">
<path fill-rule="evenodd" clip-rule="evenodd" d="M63.1102 41.7438L63.4771 42.0373C64.4111 42.7709 64.9814 43.908 64.9814 45.0818C64.9814 47.2827 62.9482 49.1535 60.5894 49.1535H57.2949V50.364C57.2949 54.6191 54.0021 57.9571 49.7721 57.9571H41.7616L33.8734 65L32.7345 63.8996L39.5251 57.9571H23.3818C19.0311 57.9571 15.0457 54.3257 15.0457 50.364V45.8522H16.6722V50.4007C16.6722 53.6287 19.8841 56.5266 23.3818 56.5266H49.8134C53.5145 56.5266 55.7097 53.4086 55.7097 50.4007V49.3002V48.7867H55.303C54.2054 48.7867 53.0665 48.3465 52.2532 47.5028C51.5623 46.8059 51.2779 45.9622 51.2779 45.0818C51.3177 43.9814 51.8879 42.8443 52.9442 42.0006L53.3111 41.7071L52.9442 41.4504L52.887 41.4089C52.7091 41.2821 52.5678 41.1794 52.4566 41.0468C51.7656 40.3499 51.44 39.4696 51.3987 38.5892C51.359 37.4521 51.8879 36.3149 52.9045 35.5446L53.2698 35.2512L52.8632 34.9577L52.8044 34.9154C52.6281 34.7889 52.4852 34.6865 52.3756 34.5542C51.6846 33.8205 51.359 32.9402 51.3177 32.0598C51.2779 30.9227 51.7656 29.7855 52.7822 29.0153L53.1475 28.7218L52.7822 28.4283C51.7243 27.6214 51.1143 26.4842 51.1143 25.4205C51.1556 24.2099 51.7243 23.1095 52.6599 22.3759C52.8632 22.1924 53.0665 22.0458 53.3111 21.9357L53.4303 21.8767L53.5748 21.8112C53.8147 21.7084 54.0704 21.6247 54.3341 21.5647C54.6359 21.4963 54.9488 21.4588 55.2617 21.4588H55.6684V7.00625C55.6684 3.74152 53.2285 1.46727 49.7721 1.46727H23.3405C19.641 1.46727 16.6309 3.96164 16.6309 7.00625V25.237L17.7699 26.8877C19.3964 29.3821 20.2907 32.2066 20.2907 35.0678V36.645C20.2907 38.8459 19.6807 41.0102 18.5434 42.8443L17.2012 42.1106C18.1368 40.5333 18.6244 38.6992 18.6244 36.645V35.0678C18.6244 32.39 17.8509 29.8223 16.3879 27.6214L15.2077 25.7873C15.168 25.7139 15.1267 25.6772 15.087 25.6039C15.0457 25.5305 14.9647 25.4571 14.9647 25.4205V16.7635C14.9647 15.4063 14.0704 14.6727 12.4835 14.6727H9.27171V48.1998V48.2732C9.27171 48.4932 9.27171 48.64 9.1907 48.7134L1.21992 56.0497L0 55.0226L7.64515 47.9064V13.4989C7.64515 13.3155 8.1328 13.2054 8.86507 13.2054H12.4835C12.5947 13.2054 12.698 13.1978 12.7965 13.1895L12.9728 13.1751L13.0538 13.1704L13.1348 13.1687C13.5811 13.1321 13.8671 13.0954 14.3944 13.3521L15.0044 13.6456V7.00625C15.0044 3.15466 18.7467 0 23.3405 0H49.7721C54.1244 0 57.2949 2.93454 57.2949 7.00625V21.8623H60.5894C62.1349 21.8623 63.1912 22.2292 63.9235 22.9628C65.5103 24.6135 65.307 26.851 63.4771 28.2816L63.1102 28.575L63.4771 28.8685C63.6026 28.9588 63.6964 29.049 63.7885 29.1393L63.8727 29.2216C63.9013 29.2506 63.9314 29.2796 63.9648 29.3087C65.5103 30.9593 65.307 33.4537 63.4771 34.8476L63.1102 35.1411L63.4771 35.4346C63.5296 35.4721 63.5756 35.5096 63.6201 35.5472C63.6693 35.5901 63.7138 35.6331 63.7583 35.6761C63.8266 35.7423 63.8917 35.8085 63.9648 35.8747C64.6971 36.645 65.0624 37.6721 64.9814 38.7359C64.9004 39.7997 64.3714 40.7534 63.4771 41.4504L63.1102 41.7438ZM55.751 23.1095C54.2054 23.1095 52.9442 24.2467 52.9442 25.6772C52.9442 27.1078 54.2054 28.2449 55.751 28.2449H60.5481C62.0936 28.2449 63.3548 27.1078 63.3548 25.6772C63.3548 24.2467 62.0936 23.1095 60.5481 23.1095H55.751ZM55.751 29.7122C54.2054 29.7122 52.9442 30.8494 52.9442 32.2799C52.9442 33.7105 54.2054 34.8476 55.751 34.8476H60.5481C62.0936 34.8476 63.3548 33.7105 63.3548 32.2799C63.3548 30.8494 62.0936 29.7122 60.5481 29.7122H55.751ZM55.751 36.3149C54.2054 36.3149 52.9442 37.4521 52.9442 38.8826C52.9442 40.3132 54.2054 41.4504 55.751 41.4504H60.5481C62.0936 41.4504 63.3548 40.3132 63.3548 38.8826C63.3548 37.4521 62.0936 36.3149 60.5481 36.3149H55.751ZM55.7907 47.6862H60.5894C62.1746 47.6862 63.3946 46.6591 63.3946 45.3019C63.3946 43.9447 62.1746 42.9176 60.5894 42.9176H55.7907C54.2054 42.9176 52.9855 43.9447 52.9855 45.3019C52.9855 46.6591 54.2054 47.6862 55.7907 47.6862ZM28.0169 4.40181H29.6434V5.86908H28.0169V4.40181ZM39.4028 4.40181H32.8965V5.86908H39.4028V4.40181ZM38.9564 53.5553H34.1578C32.3692 53.5553 30.9459 52.2347 30.9459 50.6208C30.9459 49.0068 32.4105 47.6862 34.1578 47.6862H38.9564C40.7466 47.6862 42.1698 49.0068 42.1698 50.6208C42.1698 52.2347 40.7053 53.5553 38.9564 53.5553ZM38.9564 49.1535H34.1578C33.2635 49.1535 32.5312 49.8138 32.5312 50.6208C32.5312 51.4278 33.2635 52.0881 34.1578 52.0881H38.9564C39.8507 52.0881 40.583 51.4278 40.583 50.6208C40.583 49.8138 39.8507 49.1535 38.9564 49.1535ZM25.577 15.6998V22.1924C25.577 22.5225 26.4316 23.1095 26.959 23.1095H33.0586L30.9857 28.575C30.9046 28.7952 30.9444 29.1253 31.108 29.3087C31.2096 29.4363 31.3208 29.5367 31.432 29.6054C31.5051 29.6511 31.5797 29.6829 31.6496 29.6993C31.6862 29.7078 31.7227 29.7122 31.7576 29.7122H34.1578C34.4008 29.7122 34.6454 29.5655 34.8074 29.3454L39.4028 23.1095H46.1934C46.6 23.1095 46.7636 22.5593 46.7636 22.1924V20.0283C46.7636 19.7714 46.7636 19.6247 46.6413 19.5147L44.2825 17.5705H44.1204L44.0633 17.5749L43.9886 17.5862C43.9282 17.5961 43.8615 17.6072 43.7948 17.6072H39.4028L34.8074 11.3713C34.7391 11.2785 34.6565 11.1987 34.5644 11.1375C34.4389 11.0536 34.2975 11.0045 34.1578 11.0045H31.6353C31.3113 11.0045 31.189 11.0412 31.108 11.1146C30.9857 11.2613 30.9444 11.4814 30.9444 11.7014C30.9444 11.7749 30.9444 11.8482 30.9857 11.8848L33.0189 17.5705H32.042L29.888 15.5897C29.7244 15.443 29.5211 15.3696 29.3178 15.3696H26.9193C25.577 15.4063 25.577 15.6631 25.577 15.6998ZM33.7098 28.2449H32.8552L34.7264 23.1095H37.4506L33.7098 28.2449ZM32.8552 12.4718H33.7098L37.4506 17.6072H34.7264L32.8552 12.4718ZM27.2036 16.8736H29.0335L31.189 18.8544C31.2192 18.8821 31.2509 18.9072 31.2843 18.9297C31.3081 18.946 31.3335 18.9609 31.3589 18.9745C31.4844 19.0412 31.621 19.0745 31.7576 19.0745H43.4279L45.0957 20.285V22.009H27.2036V16.8736ZM26.7969 32.6467H45.5024V34.114H26.7969V32.6467ZM35.743 37.0485H26.7969V38.5158H35.743V37.0485ZM26.7969 41.4504H41.8426V42.9176H26.7969V41.4504Z" fill="white"/>
</svg>
